<?xml version="1.0" standalone="no"?>
<!DOCTYPE svg PUBLIC "-//W3C//DTD SVG 20010904//EN"
 "http://www.w3.org/TR/2001/REC-SVG-20010904/DTD/svg10.dtd">
<svg version="1.0" xmlns="http://www.w3.org/2000/svg"
 width="128.000000pt" height="128.000000pt" viewBox="0 0 128.000000 128.000000"
 preserveAspectRatio="xMidYMid meet">

<g transform="translate(0.000000,128.000000) scale(0.100000,-0.100000)"
fill="#000000" stroke="none">
<path d="M493 1171 c-101 -29 -173 -71 -249 -146 -78 -76 -110 -131 -144 -244
-61 -201 23 -442 199 -572 36 -27 78 -53 94 -58 l27 -10 0 52 c0 112 18 123
183 114 124 -7 149 -1 117 28 -17 15 -32 17 -102 13 -71 -4 -89 -2 -123 16
-32 17 -41 27 -43 52 -3 27 1 33 28 44 17 7 50 13 74 14 25 0 42 3 40 5 -2 2
1 10 8 18 8 11 7 12 -5 7 -22 -8 -37 25 -37 80 0 66 -11 86 -94 168 -81 81
-96 107 -96 169 0 112 116 189 283 189 87 -1 138 -14 190 -50 110 -76 99 -204
-27 -313 -63 -54 -74 -85 -55 -156 15 -61 4 -106 -32 -133 -26 -20 -59 -26
-161 -29 -35 -1 -56 -6 -55 -13 4 -21 22 -26 92 -26 39 0 87 -3 108 -7 73 -11
90 -90 25 -112 -20 -7 -69 -9 -139 -5 -106 7 -107 7 -123 -19 -13 -19 -15 -37
-10 -76 6 -47 9 -51 43 -62 57 -19 206 -14 281 10 217 68 368 252 394 478 12
102 -24 244 -86 339 -129 197 -387 297 -605 235z"/>
<path d="M536 1056 c-52 -19 -108 -66 -119 -100 -18 -54 -1 -90 83 -174 89
-89 100 -110 100 -187 0 -63 19 -81 76 -70 31 5 34 4 35 -17 l0 -23 11 23 c8
16 8 33 0 61 -25 83 -1 168 59 206 40 26 89 97 96 140 7 45 -23 93 -79 125
-35 20 -60 25 -133 27 -60 2 -103 -1 -129 -11z"/>
<path d="M382 920 c0 -14 2 -19 5 -12 2 6 2 18 0 25 -3 6 -5 1 -5 -13z"/>
<path d="M742 535 c0 -16 2 -22 5 -12 2 9 2 23 0 30 -3 6 -5 -1 -5 -18z"/>
<path d="M473 425 c-3 -9 -3 -18 -1 -21 3 -3 8 4 11 16 6 23 -1 27 -10 5z"/>
<path d="M500 380 c8 -5 20 -10 25 -10 6 0 3 5 -5 10 -8 5 -19 10 -25 10 -5 0
-3 -5 5 -10z"/>
<path d="M603 363 c15 -2 37 -2 50 0 12 2 0 4 -28 4 -27 0 -38 -2 -22 -4z"/>
<path d="M545 289 c39 -8 182 -12 174 -5 -2 2 -51 6 -109 8 -67 4 -90 2 -65
-3z"/>
<path d="M450 261 c-5 -11 -9 -46 -8 -78 l1 -58 6 65 c3 36 10 71 14 78 5 6 6
12 3 12 -3 0 -10 -9 -16 -19z"/>
</g>
</svg>
