<svg width="90.90447998046875px" height="84.8px" xmlns="http://www.w3.org/2000/svg" viewBox="204.54776000976562 32.6 90.90447998046875 84.8" style="background: rgba(0, 0, 0, 0);" preserveAspectRatio="xMidYMid"><defs><filter id="editing-hole" x="-100%" y="-100%" width="300%" height="300%"><feFlood flood-color="#000000" result="black"></feFlood><feMorphology operator="dilate" radius="2" in="SourceGraphic" result="erode"></feMorphology><feGaussianBlur in="erode" stdDeviation="4" result="blur"></feGaussianBlur><feOffset in="blur" dx="2" dy="2" result="offset"></feOffset><feComposite operator="atop" in="offset" in2="black" result="merge"></feComposite><feComposite operator="in" in="merge" in2="SourceGraphic" result="inner-shadow"></feComposite></filter></defs><g filter="url(#editing-hole)"><g transform="translate(209.1763010919094, 96.82500267028809)"><path d="M14.62 0.16L14.62 0.16L14.62 0.16Q11.20-0.45 9.41-0.70L9.41-0.70L9.41-0.70Q7.62-0.96 5.73-0.96L5.73-0.96L5.73-0.96Q3.84-0.96 2.88 0L2.88 0L2.88 0Q1.41-1.09 0.64-4.54L0.64-4.54L0.64-4.54Q0.38-5.50 0.38-7.10L0.38-7.10L0.38-7.10Q0.38-10.56 4.35-13.95L4.35-13.95L24.32-30.34L24.32-30.34Q16.06-31.68 12.74-31.68L12.74-31.68L12.74-31.68Q9.41-31.68 6.34-30.21L6.34-30.21L6.34-30.21Q4.61-33.02 4.61-36.29L4.61-36.29L4.61-36.29Q4.61-39.55 7.01-41.22L7.01-41.22L7.01-41.22Q9.41-42.88 13.44-42.88L13.44-42.88L13.44-42.88Q15.23-42.88 17.15-42.62L17.15-42.62L17.15-42.62Q19.07-42.37 20.99-42.11L20.99-42.11L24.77-41.54L24.77-41.54Q26.62-41.28 29.02-41.28L29.02-41.28L29.02-41.28Q31.42-41.28 34.11-41.92L34.11-41.92L34.11-41.92Q36.67-39.68 36.67-35.97L36.67-35.97L36.67-35.97Q36.67-31.49 33.60-29.06L33.60-29.06L11.84-11.65L11.84-11.65Q16.51-10.37 24.26-10.37L24.26-10.37L24.26-10.37Q28.10-10.37 30.53-12.29L30.53-12.29L30.53-12.29Q31.62-10.88 31.90-9.70L31.90-9.70L31.90-9.70Q32.19-8.51 32.19-6.82L32.19-6.82L32.19-6.82Q32.19-5.12 31.62-3.74L31.62-3.74L31.62-3.74Q31.04-2.37 29.82-1.34L29.82-1.34L29.82-1.34Q27.39 0.77 22.02 0.77L22.02 0.77L22.02 0.77Q18.05 0.77 14.62 0.16ZM44.61 0L37.57 0L45.25-42.24L59.01-42.24L68.99-13.18L74.30-42.24L81.41-42.18L73.60 0L58.94 0L49.73-27.97L44.61 0Z" fill="#ccc"></path></g></g><style>text {
  font-size: 64px;
  font-family: Arial Black;
  dominant-baseline: central;
  text-anchor: middle;
}</style></svg>
